<svg xmlns:xlink="http://www.w3.org/1999/xlink" xmlns="http://www.w3.org/2000/svg" version="1.1" viewBox="0 0 480 320" height="320px" width="480px">
    <title>BG Guides 3</title>
    <g fill-rule="evenodd" fill="none" stroke-width="1" stroke="none" id="Page-1">
        <g fill="#9C9C9E" transform="translate(-1060, 0)" id="Logos">
            <g transform="translate(1167, 48)" id="Acavallo-Logo">
                <path id="Fill-1" d="M61.7331968,219.894973 L57.6357024,215.403924 C55.6283821,217.032753 53.2425708,217.846226 50.4839177,217.846226 C47.7158493,217.846226 45.4863303,217.008274 43.8028928,215.319187 C42.102508,213.645165 41.249491,211.372336 41.2381928,208.517648 C41.2381928,205.858796 42.0836776,203.67447 43.7689981,201.957137 C45.4562017,200.24922 47.6781885,199.384905 50.4443738,199.377373 C53.1446528,199.377373 55.5398793,200.194612 57.6357024,201.838506 L61.7331968,197.341807 C58.5960527,194.611399 54.8262072,193.248079 50.4443738,193.248079 C46.0964352,193.248079 42.4489873,194.724382 39.5133284,197.656275 C36.5795525,200.608881 35.0994833,204.239381 35.0900681,208.564724 C35.0900681,212.974803 36.5569561,216.64673 39.5057962,219.578623 C42.4489873,222.50675 46.0964352,223.984936 50.4443738,224 C54.8412715,224 58.6073509,222.63103 61.7331968,219.894973"></path>
                <polygon points="122.847438 223.999435 135.124857 193.247514 128.56623 193.247514 119.666984 215.776201 110.935329 193.247514 104.376702 193.247514 116.697431 223.999435" id="Fill-4"></polygon>
                <polygon points="200.75444 223.999435 200.75444 218.258047 184.343749 218.258047 184.343749 193.247514 178.201273 193.247514 178.201273 223.999435" id="Fill-6"></polygon>
                <polygon points="230.526427 223.999435 230.526427 218.258047 214.119502 218.258047 214.119502 193.247514 207.969495 193.247514 207.969495 223.999435" id="Fill-8"></polygon>
                <path id="Fill-10" d="M262.475585,219.585967 C265.41501,216.650308 266.885664,213.000977 266.885664,208.624793 C266.885664,204.246725 265.41501,200.593628 262.475585,197.65232 C259.534277,194.716661 255.884946,193.24789 251.504996,193.24789 C247.136344,193.24789 243.479481,194.716661 240.541939,197.65232 C237.598748,200.593628 236.128094,204.246725 236.128094,208.624793 C236.128094,212.982146 237.598748,216.629594 240.541939,219.578434 C243.479481,222.525392 247.136344,223.999812 251.504996,223.999812 C255.884946,223.999812 259.534277,222.525392 262.475585,219.585967 M258.17284,201.751698 C259.878873,203.597077 260.73189,205.890619 260.73189,208.624793 C260.73189,211.357083 259.878873,213.644976 258.17284,215.488472 C256.459273,217.335734 254.248585,218.258424 251.523826,218.258424 C248.780237,218.258424 246.550718,217.335734 244.844685,215.488472 C243.136768,213.644976 242.283751,211.357083 242.283751,208.624793 C242.283751,205.890619 243.136768,203.597077 244.844685,201.751698 C246.550718,199.908202 248.768939,198.993045 251.489932,198.993045 C254.237287,198.993045 256.459273,199.908202 258.17284,201.751698"></path>
                <path id="Fill-13" d="M75.3999223,223.999435 L77.2453012,219.280538 L91.1854441,219.280538 L93.030823,223.999435 L99.5706199,223.976839 L87.2856689,193.247514 L78.0550083,193.247514 L79.5859196,197.130342 L68.8356459,223.999435 L75.3999223,223.999435 Z M88.9276795,213.132413 L79.698902,213.132413 L84.3820217,201.451918 L88.9276795,213.132413 Z"></path>
                <path id="Fill-15" d="M6.5605103,223.999435 L8.40588921,219.280538 L22.3497982,219.280538 L24.191411,223.999435 L30.7312079,223.976839 L18.453789,193.247514 L9.21559628,193.247514 L10.7465075,197.130342 L0,223.999435 L6.5605103,223.999435 Z M20.0920336,213.132413 L10.863256,213.132413 L15.5388436,201.451918 L20.0920336,213.132413 Z"></path>
                <path id="Fill-17" d="M147.271781,223.999435 L149.11716,219.280538 L163.057303,219.280538 L164.902682,223.999435 L171.446245,223.976839 L159.16506,193.247514 L149.926867,193.247514 L151.457779,197.130342 L140.715037,223.999435 L147.271781,223.999435 Z M160.803305,213.132413 L151.582059,213.132413 L156.253881,201.451918 L160.803305,213.132413 Z"></path>
                <path id="Fill-19" d="M133.439537,6.52661559 C138.474785,6.52661559 157.032141,9.40201721 184.296673,46.3698525 L185.388836,45.6109875 C166.867257,17.0509245 147.434288,-6.63169875e-15 133.439537,-6.63169875e-15 C119.431604,-6.63169875e-15 100.011816,17.0584566 81.4676411,45.6204027 L82.5711024,46.3849169 C109.8394,9.40201721 128.396756,6.52661559 133.439537,6.52661559"></path>
                <path id="Fill-22" d="M101.162918,166.651273 C96.4214243,166.381998 54.6932646,163.683602 49.5544493,152.170698 C46.3608139,144.907813 46.4060069,126.316563 54.047382,102.658052 L52.7913945,102.211771 C41.7567819,131.172922 39.1676023,149.839494 45.1180077,157.721899 C48.4246255,161.777966 59.0845132,164.811543 75.9396015,166.511928 C83.270275,167.240664 91.7288894,167.73967 101.104544,167.988231 L101.162918,166.651273 Z"></path>
                <path id="Fill-24" d="M190.938342,166.518895 C207.793431,164.831692 218.447669,161.792465 221.769351,157.721334 C227.704692,149.853994 225.123045,131.183655 214.090315,102.230037 L212.832445,102.672551 C220.481352,126.332945 220.519013,144.931728 217.319728,152.200261 C212.184679,163.696219 170.456519,166.400264 165.718792,166.665772 L165.771517,168.00273 C175.156587,167.756052 183.622733,167.262696 190.938342,166.518895"></path>
                <path id="Fill-26" d="M149.743271,60.4764561 C149.507891,58.5708199 147.779261,57.2206805 145.877391,57.4560604 C145.02814,57.5520955 144.291871,57.955066 143.755205,58.5425744 L144.461345,59.1959891 C144.367193,59.5368193 144.34083,59.900246 144.387906,60.2749709 C144.57621,61.8341277 145.996022,62.9413551 147.551413,62.7587002 C147.764196,62.7248055 147.967565,62.6777295 148.153986,62.6193553 L148.839412,63.2482906 C149.507891,62.5270863 149.863786,61.5290753 149.743271,60.4764561"></path>
                <path id="Fill-28" d="M133.428427,103.435182 C161.481952,103.435182 196.694795,148.726053 197.046923,149.191164 L198.003507,148.50762 C197.911238,148.375808 188.978098,134.682343 176.653603,121.160235 C160.033895,102.936177 145.487413,93.7036331 133.428427,93.7036331 C121.365675,93.7036331 106.815427,102.936177 90.2032506,121.160235 C77.8712236,134.682343 68.9380833,148.375808 68.8458144,148.50762 L69.8023985,149.191164 C70.1545269,148.726053 105.367369,103.435182 133.428427,103.435182"></path>
                <path id="Fill-30" d="M97.915428,110.33464 C95.3733244,104.365404 93.9648107,97.8048935 93.9648107,90.9280326 C93.9648107,66.0060022 112.296202,45.0873142 136.82656,41.7279714 L138.397015,41.4756441 C138.879074,41.1649425 140.585108,40.3590015 142.741188,40.3590015 C144.153468,40.3590015 145.484777,40.7054808 146.697454,41.3965564 L141.438124,48.1039438 L152.566889,58.4135861 L152.781556,60.1196201 L175.782886,81.4167991 C176.087938,81.7049041 176.263061,82.0607986 176.319552,82.4731843 C176.327084,82.5692194 176.33085,82.6690205 176.327084,82.7725876 L176.204686,86.725088 L170.015135,88.7983147 C169.860726,88.8548059 169.68372,88.8924667 169.51048,88.9169462 C168.661229,89.0223964 167.830809,88.6476715 167.32992,87.9754263 L165.531617,85.5444221 L148.638868,77.5170239 L147.618261,78.1064153 C146.366039,78.8257364 144.998953,79.2814321 143.556544,79.4565547 C143.115913,79.5055138 142.684697,79.5318763 142.247832,79.5318763 C136.815262,79.5318763 132.222528,75.4626275 131.563464,70.0583036 L130.397863,70.1430404 C130.589933,78.9631983 136.367099,84.8665278 144.100743,83.9306571 C145.735221,83.7310549 147.315091,83.2678271 148.780096,82.5786346 L162.575245,89.1240805 L163.710718,90.6568749 C165.160659,92.6246513 167.606727,93.6866857 170.052796,93.3816333 C170.551801,93.3307912 171.048924,93.2083936 171.493321,93.0577505 L177.901305,90.9035531 C179.565912,90.3668867 180.695736,88.8265603 180.695736,87.1167602 L180.827549,82.9251139 C180.842613,82.5936989 180.827549,82.2547517 180.791771,81.9289859 C180.610999,80.463981 179.916158,79.1006602 178.835293,78.1064153 L157.050407,57.9371771 L156.841389,56.227377 L147.542939,47.6162365 L153.067778,40.5586037 L150.213089,38.3347338 C149.154821,37.4986642 147.441255,37.0260213 145.520555,37.0260213 C142.32127,37.0260213 139.449635,38.2782427 137.794443,40.3985454 C108.684532,40.5567207 85.0505008,64.2830209 85.0505008,93.4230602 C85.0505008,102.053031 87.1256105,110.208476 90.7956549,117.418635 C93.0722499,115.017759 95.450529,112.631948 97.915428,110.33464"></path>
                <path id="Fill-32" d="M176.602196,129.876826 L175.630548,128.961668 C166.689875,136.482529 155.385988,140.615801 143.652767,140.615801 C126.690346,140.615801 111.695701,132.079982 102.719251,119.071944 C100.246819,120.97758 97.8346456,122.988666 95.5166237,125.022349 C105.197331,138.026621 120.6778,146.45699 138.084619,146.45699 C152.648048,146.45699 166.603255,140.427497 176.602196,129.876826"></path>
            </g>
        </g>
    </g>
</svg>