<svg xmlns="http://www.w3.org/2000/svg" width="339" height="159" fill="none"><path fill="#454545" d="m178.86 0 2.53.24c3.98.29 7.87 1.01 11.7 2.1.49.15.68.34.68.88-.03 4.5-.02 9.01-.02 13.52l-.03.63c-.12-.02-.2-.02-.27-.05a37.1 37.1 0 0 0-13.41-3.66c-5.34-.5-10.6-.16-15.7 1.52-12.56 4.15-20.6 12.66-24.1 25.4-1.18 4.3-1.15 8.7-.46 13.09.9 5.8 3.04 11.1 6.7 15.73a36.6 36.6 0 0 0 16.66 11.76 38.05 38.05 0 0 0 15.69 2.13 37.55 37.55 0 0 0 14.71-3.89l.21-.03v.65c0 4.49 0 8.98.02 13.46 0 .54-.18.74-.67.88a60.6 60.6 0 0 1-13.53 2.25 58.3 58.3 0 0 1-20.71-2.37 51.06 51.06 0 0 1-20.5-12.31c-3.82-3.7-7.05-7.8-9.43-12.56a46.6 46.6 0 0 1-4.69-15.96 44.7 44.7 0 0 1 3.1-22.57 47.6 47.6 0 0 1 9.23-14.08A51.64 51.64 0 0 1 161.5 1.8c3.56-.94 7.18-1.5 10.85-1.68.26-.01.51-.08.77-.12h5.75Zm7.59 159c-.85-.09-1.7-.16-2.54-.26-5.23-.6-9.4-2.95-12.2-7.48-1.31-2.13-1.74-4.53-1.76-6.97-.08-7.83-.1-15.66-.13-23.5-.02-3.62 0-7.25 0-10.93h7.81v31.01c.01 2.13.21 4.24.89 6.27a6.47 6.47 0 0 0 4.65 4.44c2.46.69 4.95.73 7.44.17 2.74-.62 4.42-2.35 5.16-5.06.51-1.88.7-3.8.71-5.74.02-10.1 0-20.2 0-30.3v-.8h7.83v.65c0 10.2.01 20.4-.02 30.6 0 2.62-.03 5.28-.89 7.8-1.62 4.8-5.05 7.74-9.79 9.2-1.44.44-3 .53-4.5.78l-.7.12z"/><path fill="#000" d="M0 99.39c.26-.02.52-.06.79-.06h337.93v1.97H.9c-.3 0-.6-.05-.9-.07z"/><path fill="#454545" d="M236.64 159c-.8-.08-1.61-.15-2.41-.25-9.49-1.14-16.67-5.83-21.29-14.19a22.76 22.76 0 0 1-2.64-13.24c.84-9.4 6-15.94 14.02-20.4 5.02-2.78 10.5-3.6 16.16-3.08 2.1.2 4.16.7 6.24 1.09.18.03.45.28.45.43.03 2.48.02 4.97.02 7.55-.3-.13-.53-.25-.77-.34-7.69-2.96-15-2.5-21.49 2.89-4.64 3.85-6.96 8.97-6.49 15.07.6 7.66 4.7 12.92 11.72 15.84 5.54 2.29 11.1 2.03 16.56-.4.12-.06.26-.1.44-.17l.03.58c0 2.23 0 4.45.02 6.68 0 .42-.14.6-.54.7a32 32 0 0 1-7.35 1.14c-.2.01-.4.07-.6.1z"/><path fill="#000" d="M174.15 32.77c.17 1.3-.34 2.23-1.43 2.89-.83.5-1.63 1.06-2.7.82-.52-.12-.81.13-.71.73.38 2.25.39 2.2 2.35 1.51.5-.18 1-.35 1.5-.45 2-.4 3.22-2.2 3.05-4.22-.1-1.14.13-2.33.87-3.31.27-.36.27-.68.06-1.1-.69-1.37-.35-2.66.42-3.87.27-.42 1.22-.6 1.8-.3.66.34 1.3.74 1.92 1.14.37.23 1.44.33 1.81.06q.975-.69 1.89-1.44c.87-.71 1.78-1.39 2.56-2.2.48-.52.86-1.21 1.07-1.9.3-.9.38-1.87.56-2.86.19-.02.39-.05.58-.05 1.1-.01 1.56.09 1.4 1.41-.09.76.05 1.54.11 2.3.04.36.25.54.64.62 1.74.38 3.42-.29 4.36-1.77.42-.66.85-1.33 1.33-1.95.18-.23.52-.4.8-.46.4-.07.81-.01 1.33-.01-.08.53-.07 1-.23 1.42-.49 1.26-1.03 2.49-1.56 3.73-.03.06-.1.11-.16.17-.47.47-.41.87.12 1.3.28.23.56.52.72.84a78 78 0 0 1 1.9 4.1c.18.41.2.93.19 1.4-.03 1.06-.13 2.13-.17 3.2 0 .19.13.38.19.57.05.15.15.32.12.46-.05.28-.14.56-.26.81-.3.64-.47 1.2-.15 1.95.22.54.32 1.28-.28 1.84-.22.2-.25.62-.46.84-.27.28-.64.63-.95.62-.26-.01-.65-.48-.72-.8-.51-2.23-1.7-4.2-2.36-6.36-.06-.17-.2-.32-.25-.49-.18-.53-.4-1.05-.5-1.6-.08-.53.02-1.1-.01-1.64-.06-.97-.72-1.53-1.66-1.41-1.31.16-2.62.36-3.93.53-.12.02-.24.02-.35.02-.33-1.22.13-2.12 1.3-2.75.45-.24.86-.56 1.26-.87.15-.11.22-.31.25-.61-.19.04-.38.07-.56.13-.92.34-1.87.62-2.72 1.07-.9.47-1.7 1.1-2.52 1.69-.45.32-.85.7-1.24 1.08-.51.5-.93 1.12-1.5 1.53-.82.6-1.28 1.43-1.85 2.2-.85 1.16-1.88 2.18-2.78 3.3-.26.33-.3.83-.48 1.23-.1.23-.25.47-.43.65-.34.34-.72.65-1.08.96-.27.22-.56.43-.82.66-.5.45-1 .89-1.46 1.36s-.88.98-1.31 1.48c-.68.77-1.3 1.61-2.04 2.32-.8.75-1.28 1.69-1.8 2.6-.22.4-.26.9-.4 1.34-.11.34-.23.68-.41.99-.27.47-.65.9-.45 1.63.57-.68 1.1-1.3 1.61-1.93.84-1.05 1.86-1.6 3.36-1.28-.18.55-.34 1.08-.53 1.6-.14.38-.32.75-.5 1.11-.22.46-.25.87.14 1.28.16.17.24.46.27.71.07.76.39 1.34.96 1.84.22.2.41.52.45.81.12.87.25 1.69 1.07 2.21.67.42.61 1.08.52 1.74-.05.36-.14.71-.23 1.16.26-.03.5 0 .68-.09.97-.5 1.92-1.02 2.88-1.54.27-.15.52-.34.79-.5.55-.33 1.12-.62 1.66-.97a7.43 7.43 0 0 1 4.25-1.03c.94 0 1.36.7 1.7 1.37.4.8.66 1.64.1 2.55-.26.44-.36.96.05 1.5.21.3.18.84.13 1.25-.16 1.46-.33 2.91-.58 4.35-.26 1.54-.62 3.07-.93 4.6-.04.22-.05.43-.08.67.69.16.97-.36 1.28-.7.38-.4.86-.51 1.27-.35.25.1.38.59.52.92.1.21.1.46.33.8.26-.33.58-.62.79-.98a44 44 0 0 0 1.68-3.1c.23-.48.26-1.05.39-1.59.22-.92.44-1.84 1.52-2.2l-.1-.14c-.55.3-1.05.73-1.63.9-.9.25-1.83.34-2.75.48-.09.01-.23-.1-.28-.2-.4-.7-.82-1.4-.76-2.23 0-.16.2-.36.35-.46.27-.17.38-.28.1-.55-.37-.36-.38-1.09-.19-1.58.21-.56.3-1.17.44-1.75.06-.23.15-.45.17-.68a3.97 3.97 0 0 0-2.51-3.91c-1.14-.38-2.31-.65-3.47-.96-.58-.15-1.17-.77-1.15-1.38.02-.7.19-1.38.2-2.08.02-.5-.08-1-.17-1.5-.1-.53-.07-.97.52-1.2.15-.06.27-.34.28-.52.13-2.26.19-4.52.39-6.77a3.5 3.5 0 0 0-.27-1.8c-.72-1.61.25-3.39 1.42-4.23.3-.22.52-.58.84-.76.48-.27 1.01-.44 1.53-.61.07-.02.22.19.32.3.37.4.74.79 1.07 1.2.16.2.3.45.32.69.04.58-.01 1.18-.02 1.77-.02.75-.02 1.49.8 1.89.1.04.16.18.2.28.23.64.4 1.3.67 1.9.15.34.41.7.72.88.43.25.5.56.5 1 0 .93.03 1.87.1 2.8.02.26.24.52.4.76.21.3.46.55.68.85.32.44.66.88.93 1.36.2.37.32.79.42 1.2.52 2.06.43 4.16.33 6.26-.02.3-.46.58-.72.87-.34.37-.7.7-1.01 1.1-.25.31-.06.72.33.7.4-.02.85-.09 1.19-.29 1.22-.73 2.35-1.61 3.79-1.92.56-.12 1.03-.02 1.44.41.16.18.4.27.58.43.32.28.67.54.9.88.28.38.48.79.85 1.14.27.25.32.91.23 1.34a4.9 4.9 0 0 1-1.54 2.58c-.47.44-.8 1.06-1.17 1.6-.23.35-.4.73-.64 1.05-.9 1.14-1.77 2.28-2.72 3.36-.67.76-1.22 1.6-2.12 2.21-.74.5-1.26 1.36-1.82 2.1-.64.85-1.2 1.76-1.84 2.61-.3.41-.69.8-1.1 1.1-.58.42-2.22-.22-2.55-.91-.26-.54-.55-1.06-.88-1.68-.64.88-1.8 1.36-1.67 2.66.08.77-.64.77-1 1-.26.17-.9 0-1.2-.23-.6-.47-1.1-1.1-1.63-1.66a.5.5 0 0 1-.1-.16 4.68 4.68 0 0 1-.2-2.87c.27-1.07 1.07-1.59 2.16-1.59.56 0 .8-.28.91-.77.13-.53.34-1.05.42-1.59.05-.3-.13-.63-.14-.94 0-.4-.06-.85.1-1.17.35-.66-.15-1.21-.1-1.82 0-.06-.28-.23-.4-.2-.4.1-.83.2-1.15.43-1 .76-1.98 1.53-2.9 2.38-.5.48-1.08.65-1.72.77-.32.06-.54-.06-.53-.4.01-.49-.37-1 .18-1.47.13-.12 0-.58-.05-.87-.22-1.29-.91-2.14-2.24-2.43-.23-.05-.46-.28-.63-.48l-2.7-3.37c-.47-.57-.97-1.12-1.43-1.69a.75.75 0 0 1-.17-.45c.02-1.16-.8-1.76-1.65-2.21-.66-.35-.93-.92-1.27-1.48-.1-.18-.2-.36-.33-.5-.23-.28-.67-.51-.69-.79-.05-.67.1-1.35.13-2.03.05-1.02.06-2.03.06-3.05 0-.41-.15-.78.22-1.18.8-.86 1.54-1.77 2.27-2.69.7-.87.6-1.34-.2-2.1-.32-.31-.56-.73-.8-1.13-.4-.66-.85-1.25-1.7-1.36a.38.38 0 0 1-.24-.16c-.71-1.17-1.92-1.35-3.1-1.55-.97-.16-1.96-.24-2.89-.51a3.2 3.2 0 0 1-1.42-.96c-.48-.55-.41-1.1.06-1.65 1.1-1.31 2.17-2.65 3.32-3.9.74-.8 1.62-1.48 2.4-2.25.2-.2.32-.55.4-.85.1-.5.34-.82.83-1.09.64-.35 1.15-.95 1.73-1.41.67-.53 1.33-1.08 2.06-1.5.94-.54 1.66-.27 2.14.69l1.2 2.4c.4.83.68 1.66.7 2.62.02 1.47.6 2.07 2.04 2.39Z"/><path fill="#454545" d="M89.76 157.98h-7.35V109.8h.67c2.02 0 4.04.03 6.05-.01.62-.02.99.17 1.34.68 7.5 10.88 15.02 21.74 22.53 32.6.69 1 1.39 2 2.22 2.99l-.35-36.23h7.25v48.14l-.48.03h-6.06a.84.84 0 0 1-.8-.41l-16.05-23.4-9.03-13.15a.9.9 0 0 0-.42-.35l.48 37.28Zm-38.4-21.05v14.36c.27.02.52.04.78.04l18.73-.01c.55 0 .73.13.72.7-.04 1.78-.02 3.55-.02 5.33l-.02.62H43.59v-48.12h27.98v2.08c0 1.22-.02 2.45.02 3.67.01.51-.15.65-.66.65-6.24-.02-12.48-.01-18.72-.01h-.84v14.34h20.17l.03.71c0 1.63-.02 3.26.02 4.9.01.57-.14.75-.74.75-5-.02-10-.01-15-.01zm270.94 21.05h-7.82v-.8c0-5.42 0-10.85-.02-16.27 0-.4-.11-.86-.3-1.21-5.3-9.78-10.62-19.54-15.94-29.31l-.27-.55.51-.03c2.55 0 5.1.01 7.65-.01.42 0 .6.15.78.5l11.39 22.24.22.4.9-1.71 10.7-20.95c.13-.24.2-.48.6-.48 2.73.02 5.46.01 8.3.01l-.32.63c-5.35 9.86-10.7 19.72-16.04 29.6-.21.38-.33.87-.33 1.32-.03 5.28-.02 10.56-.02 15.84v.78ZM163.48 116.3h-14.33v41.67h-7.82V116.3h-14.72v-6.47h36.87v6.46Zm-124.95-6.46-20.94 23.9 20.42 24.22c-.27.02-.44.04-.61.04-2.9 0-5.8 0-8.69.02-.4 0-.62-.16-.85-.45-6.23-7.67-12.47-15.35-18.72-23-.31-.38-.32-.6 0-.97l17-20.22c.9-1.08 1.8-2.16 2.72-3.22a1 1 0 0 1 .65-.33c2.9-.03 5.79-.02 8.69-.02zm257.04-.04-20.97 23.93 20.46 24.28h-.75c-2.8 0-5.59-.02-8.38 0-.5.01-.82-.13-1.13-.52l-16.09-19.8-2.95-3.62 4.15-4.93 15.8-18.83c.3-.37.61-.51 1.08-.5h8.78Zm-294.89.03H8.4v48.13H.68zm264.72 48.14h-7.7v-48.13h7.7z"/><path fill="#000" d="M236.83 125.06c-.02 1.3-.42 1.62-2.53 2.07v.47c.1.84.28.95 1.06.67.34-.13.7-.25 1.04-.33.95-.22 1.55-1.14 1.52-2.12-.01-.56.24-1.12.35-1.69.05-.27.06-.56.07-.84.03-.53-.03-1.09.11-1.59.17-.6.75-.78 1.27-.44 1.66 1.11 1.64.74 3.3-.52 1.1-.84 1.74-1.9 1.69-3.28 1.02-.21 1.13-.12 1.1.83-.02 1.26.02 1.68 1.68 1.25.35-.1.67-.42.94-.7.26-.28.44-.63.64-.96.3-.47.7-.57 1.36-.4-.18.58-.31 1.16-.53 1.71-.16.4-.45.76-.63 1.16-.05.14.02.36.1.51.51 1 1.1 1.97 1.55 3 .14.34-.08.84-.12 1.26-.02.2-.08.42-.02.6.19.59.22 1.14-.1 1.69-.05.07-.06.2-.02.28.38.66.07 1.2-.3 1.74-.32.48-.66.46-.88-.08-.38-.96-.72-1.93-1.09-2.9-.3-.78-.72-1.52-.6-2.43.05-.5-.3-.84-.87-.77l-2.23.25c-.28-.58.01-.96.4-1.27.36-.29.75-.53 1.13-.79l-.16-.25c-.94.5-1.94.91-2.8 1.53a14.4 14.4 0 0 0-4.03 4.47c-.7 1.2-1.85 1.79-2.64 2.79-.75.94-1.59 1.83-2.24 2.83-.42.66-.6 1.47-.93 2.37.9-.75 1.29-2.02 2.74-1.7-.12.35-.2.67-.34.98-.3.7-.1 1.82.43 2.38.08.09.25.17.24.25-.08 1.1 1.5 1.67.8 2.96l.19.08c.52-.27 1.06-.53 1.58-.82.56-.32 1.08-.75 1.67-.98a7.6 7.6 0 0 1 1.99-.44c.6-.05 1.35.98 1.11 1.6-.22.6-.06 1.12-.06 1.7 0 .98-.2 1.97-.36 2.96-.12.77-.3 1.54-.5 2.5.48-.31.78-.62 1.13-.7.64-.15.45.5.71.95a10.8 10.8 0 0 0 1.77-3.95c-.7.06-1.5 1.05-2.19-.09-.33-.54-.28-.83.11-1.17-.5-.58-.11-1.18.02-1.76.28-1.3-.2-2.28-1.48-2.7a9 9 0 0 0-1.42-.36c-.55-.09-.74-.44-.75-.93-.02-.65 0-1.29 0-1.93 0-.06-.02-.15.01-.18.86-.7.41-1.7.53-2.55a5.7 5.7 0 0 0-.12-2.94c-.1-.26 0-.71.18-.96.38-.53.84-1.02 1.33-1.45.27-.23.56-.2.91.17.56.57.65 1.15.59 1.86-.02.2.04.45.13.64.22.44.47.87.7 1.3.06.09.06.22.13.27.7.46.62 1.18.56 1.85-.07.8.53 1.27.9 1.78.44.62.49 1.27.61 1.93.06.31.03.65.04.97.02.8.15 1.65-.76 2.13-.14.07-.18.29-.27.44l.08.2c.28-.07.58-.09.84-.2.33-.16.63-.38.94-.58.77-.49 1.48-.56 2.26.1 1 .84 1.17 1.81.37 2.82-.51.64-.93 1.37-1.45 2-.76.9-1.59 1.72-2.36 2.6-.42.47-.79.99-1.18 1.48-.32.4-.62.85-.99 1.22-.71.7-1.3.6-1.81-.27-.13-.2-.24-.41-.38-.66-.37.44-.86.74-.88 1.4-.02.43-.73.7-1.1.48-.75-.43-1.3-1.55-1.14-2.4.1-.47.3-.9.9-.98.65-.09 1.15-.96 1.02-1.63-.05-.28.01-.59-.03-.87-.04-.33-.14-.64-.22-.96-.26.11-.56.18-.78.35-.54.4-1.02.88-1.57 1.25-.26.17-.64.16-.96.23-.01-.3-.08-.63-.02-.92.15-.67-.3-1.45-.96-1.72-.26-.1-.5-.3-.68-.52-.66-.77-1.28-1.56-1.92-2.34-.09-.11-.21-.23-.22-.35-.04-.64-.5-.94-.95-1.24a2.48 2.48 0 0 1-1.05-2.6c.09-.43.17-.93.04-1.33-.23-.66.2-.97.5-1.38.34-.47.98-.98.93-1.4-.08-.59-.6-1.2-1.09-1.62a4.66 4.66 0 0 0-2.99-1.29c-.4 0-.84-.14-1.22-.33-.55-.27-.66-.84-.25-1.3.93-1.04 1.9-2.06 2.85-3.08.08-.1.21-.16.25-.26.43-1.21 1.57-1.68 2.48-2.37.52-.38.95-.2 1.23.38.45.92 1 1.8 1.02 2.9.02.55.43.89 1.04.97ZM153.1 95v1.85H20.76V95zm165.4-.04v1.88H197.11v-1.88h121.4Zm-156.8-48.3c.8.2 1.6.4 2.4.63.12.03.24.23.25.36a5.9 5.9 0 0 1-.95 3.34 6.5 6.5 0 0 0-.77 2.79c-.08.96-.7 1.54-1.1 2.28-.04.07-.13.1-.16.18-.5 1.43-1.2 2.82-1.03 4.41.02.25-.04.53-.11.78l-1.19 4.48c-.11.45-.35.65-.82.7-1.47.15-1.93-.33-1.57-1.8.21-.83.64-1.6.85-2.44.15-.58.15-1.2.15-1.82 0-1.56-.12-3.13-.06-4.7.05-1.05.39-2.1.45-3.15.04-.71.52-1.23.62-1.9.04-.29.1-.6.06-.89-.19-1.3-.13-1.93 1.05-2.53.63-.33 1.2-.62 1.93-.72m15.08-25.7c.14.55.33 1.1.42 1.67.11.71.27 1.46.17 2.15-.11.75-.52 1.45-.76 2.19-.14.42-.22.87-.3 1.3-.12.63-.63 1.16-1.26 1.19-.17 0-.43-.15-.49-.3a3.2 3.2 0 0 1-.21-.94c-.07-.69-.01-1.41-.19-2.08-.2-.8-.4-1.68-1.5-1.86-.76-.13-1.48-.45-2.21-.69-1.65-.54-1.9-2.03-1.41-3.28a3.55 3.55 0 0 1 4.08-2.1c1.22.34 2.37.94 3.53 1.45.13.06.23.3.26.47.04.26 0 .53 0 .8zm24.3 20.81c.4.52.85 1 .88 1.75.06 1.44.3 2.87-.13 4.31-.12.39-.15.81-.27 1.23-.33 1.16-1.46 1.3-2.31 1.24-.57-.04-1.34-1.24-1.4-2.08-.06-.86.26-1.53 1.05-1.96.55-.29.7-1.02.45-1.59-.2-.48-.35-1-.42-1.52-.02-.19.24-.5.45-.6.53-.3 1.1-.52 1.7-.78"/><path fill="#000" d="m231.72 133.38-.53 1.27c-.05.13-.18.24-.2.37-.14 1.25-.9 2.27-1.25 3.44-.38 1.27-.55 2.6-.84 3.9-.05.22-.2.5-.37.58-.23.1-.62.14-.79.01-.17-.12-.19-.5-.21-.76a1 1 0 0 1 .1-.53c.49-.93.47-1.91.43-2.9a10.6 10.6 0 0 1 .56-4.19.9.9 0 0 0 .03-.41c-.12-1.05.75-1.87 1.82-1.69.22.04.43.15.65.17.45.04.58.3.6.74m101.06 15.19a5.04 5.04 0 1 1-5.01 5.02 5.02 5.02 0 0 1 5-5.02Zm4.41 5.07a4.37 4.37 0 0 0-4.33-4.43 4.44 4.44 0 0 0-4.44 4.35 4.46 4.46 0 0 0 4.39 4.42 4.41 4.41 0 0 0 4.38-4.34m-98.93-34.78c.04.21.08.47.16.72.17.52.28 1-.03 1.56-.23.41-.26.94-.4 1.4-.05.19-.12.4-.25.52a.9.9 0 0 1-.56.22c-.08 0-.19-.28-.22-.45-.12-.56-.17-1.14-.32-1.7-.06-.2-.3-.4-.51-.5-.43-.19-.89-.29-1.33-.45a1.23 1.23 0 0 1-.57-1.9c.78-1.04 1.42-1.23 2.65-.79.3.11.6.26.89.39.41.18.7.42.49.97Zm12.82 11c.68.5.52 1.24.54 1.88.02.61-.13 1.23-.23 1.85-.1.55-.53.8-1.02.76-.28-.03-.61-.29-.79-.53-.28-.4-.34-.88.01-1.3.12-.14.3-.22.39-.38.1-.2.25-.48.2-.69-.26-1.13-.28-1.13.9-1.6Z"/><path fill="#000" d="M331.88 153.97v2.32h-1.05v-5.55c1.06 0 2.11-.07 3.15.03.84.08 1.25.57 1.32 1.22.09.8-.21 1.3-1.02 1.68l-.23.13 1.17 2.43c-1 .24-1.1.2-1.48-.6l-.5-1.04c-.25-.53-.7-.74-1.36-.62m.01-.68c.6-.05 1.11-.08 1.62-.15.44-.06.68-.34.7-.78.03-.47-.19-.82-.63-.91-.54-.11-1.1-.11-1.69-.17v2Z"/></svg>