<?xml version="1.0" encoding="UTF-8"?>
<svg id="_Слой_1" data-name=" Слой 1" xmlns="http://www.w3.org/2000/svg" viewBox="0 0 1024 1024">
  <defs>
    <style>
      .cls-1 {
        fill: none;
      }

      .cls-2 {
        fill: #f6f1eb;
      }

      .cls-3 {
        fill: #7f5412;
      }
    </style>
  </defs>
  <path class="cls-1" d="m0,0h1024v1024H0V0Z"/>
  <path class="cls-2" d="m732,266h3l-2,5-8,16-3,10v9l4,7,6,8,2,6,3,24,6,19,6,15,6,13,1,13-3,7-10,4-5,1h-9l-6-3-8-16-5-9-12-10-17-12-6-5-6-8-5-10-2-10v-16l3-11,6-8,9-8h2v-2l-9-2-8-2h-22l-14,4-14,8-10,9-9,10-11,18-7,16-6,18-5,23-3,26v41l3,25,5,23,7,20,8,16,7,11,9,11,10,9,13,8,14,5,11,2h13l16-3,13-5,14-8,13-12,7-8,8-13,7-16,6-24h6l1,5v53l-8,10-12,11-14,9-15,8-16,6-17,4-7,1h-25l-17-3-18-6-16-8-12-8-11-9-8-8-11-14-11-18-8-17-7-21-5-25-1-9v-43l4-27,6-22,8-19,9-17,8-11,9-11,13-13,15-11,21-11,17-5,12-2h20l18,3,16,5,8,4,6,5,9-12,8-8,9-5Z"/>
  <path class="cls-2" d="m517,506l-5-19-7-15-10-14-9-9-13-10-14-8-13-5-25-5,11-2,16-5,12-6,13-9,10-10,7-11,5-12,3-14v-11l-2-13-5-14-7-11-8-8-11-8-16-8-17-5-21-3h-159v7l18,4,8,4,6,7,3,10v279l-3,9-6,7-8,4-18,4v8h160l24-3,21-6,15-7,14-9,8-8,9-10,7-11,5-12,3-17v-18l-1-7Zm-181-223h56l17,3,13,5,12,8,7,7,8,14,4,14,1,16-2,16-4,12-6,11-9,10-11,7-13,5-19,4h-54v-132Zm139,248l-4,17-8,16-8,11-9,9-14,9-16,6-11,2h-69v-172h54l19,3,18,6,13,7,12,11,8,10,8,16,5,16,2,12v21Z"/>
  <path class="cls-2" d="m416,151h13l17,3,13,5,12,7,13,11,8,10,8,14,6,16,5,19v4h2l1-9,8-26,8-16,7-9,11-11,14-9,12-5,12-3,9-1h12l18,3,18,6,14,8,10,9,8,12,4,13v16l-4,11-9,10-10,6-6,2h-13l-11-4-9-8-4-8-1-9,2-8,4-6,7-4,9-1,7,3,4,5v8l-5,5h-3v-11l-3-2h-6l-6,4-2,6,1,9,4,6,6,5,6,2h11l10-4,7-6,5-10,1-5v-9l-4-13-7-10-9-8-16-8-13-4-11-2h-20l-14,3-12,5-11,7-10,9-9,12-3,6,8-6,6-4,7-2h12l9,4,7,6,3,8-1,9-3,3-3-9-6-5-8-3h-16l-9,4-8,7-5,6-7,14-5,15h-2l-7-20-7-12-8-8-12-6h-16l-10,4-5,6-2,7h-2l-2-5v-8l4-8,7-6,8-3h12l10,4,8,6,2,1-7-12-13-13-13-8-12-5-14-3h-20l-21,5-16,8-8,6-7,7-6,12-1,4v14l4,11,4,5,8,5,7,2h10l8-3,6-5,3-6v-11l-5-6-9-1-3,3,1,10-6-2-3-4v-6l4-6,7-3h7l9,4,4,5,2,5v13l-5,10-8,7-11,4h-13l-11-4-8-6-5-6-4-9-1-3v-19l4-11,7-11,7-7,14-9,15-6,17-4,7-1Z"/>
  <path class="cls-2" d="m722,642l17,1,14,4,12,6,10,8,7,8,6,12,3,11v19l-4,12-5,9-9,10-12,7-10,3h-17l-13-5-8-6-7-7-5-11-1-10,3-12,5-7,9-6,7-2h7l9,3,6,7,1,2v11l-6,7h-8l2-4,3-4v-7l-5-5-2-1h-7l-8,4-4,5-2,4v14l5,9,8,7,12,5h16l12-5,9-7,7-11,3-8,1-6v-8l-4-16-6-10-4-5-10-7-13-6-8-2-9-1h-9l-17,3-16,6-18,10-12,9-13,11-16,15-33,33-11,9-5,4,25-14,16-10,14-7,8-2h13l11,4,6,7-1,4-5-2h-21l-16,5-14,6-19,10-25,10-18,5-7,1h-20l-6-2v-2l14-2,9-6,11-11,7-10,4-8,2-8v-12l-4-11-4-5-2-2,1-1h8l6,3,6,7,2,7v10l-4,12-6,10-9,11-7,7,12-7,15-11,11-9,24-24,8-7,11-11,8-7,16-13,15-9,16-8,16-5,16-2Z"/>
  <path class="cls-2" d="m295,642l19,1,18,5,21,10,12,8,14,11,13,12,8,7,35,35,17,13,15,10-3-4-9-11-7-11-4-11v-14l4-8,7-6,2-1h9l1,2-5,4-4,8-2,12,3,14,7,12,9,11,7,7,8,4,3,1,11,1-3,3-5,1h-20l-21-5-20-8-16-8-23-11-13-4-5-1h-19l-7,2,2-6,7-6,8-3h14l12,4,15,8,19,12,14,7-13-11-13-12-16-17-12-11-10-10-14-11-14-10-16-8-14-5-9-2-17-1-13,2-14,5-10,7-5,4-7,11-4,11-1,5v12l4,13,7,10,7,6,11,5,4,1h15l10-4,8-6,6-10,1-3v-11l-4-8-5-4-5-2h-7l-5,3-2,3v7l5,6v2h-8l-5-5-1-3v-10l4-6,5-4,6-2h8l9,3,8,7,4,6,2,7v12l-4,11-7,9-9,6-10,4-4,1h-16l-12-4-11-7-7-7-6-10-4-12-1-13,3-16,7-14,11-12,13-8,15-5,14-2Z"/>
  <path class="cls-2" d="m512,775l2,1,3,15,8,16,8,10,10,8,7,3,5,1h9l10-3,6-5,2-3h2v7l-3,7-5,5-8,4h-11l-12-4-9-6-7-7-5-7,9,17,9,12,8,7,8,6v2l-9-1-7-4-9-9-8-14-6-14-6-19v-6h-2l-1,9-8,23-10,19-11,12-9,4h-7l1-3,11-8,8-8,9-14,4-9-8,10-8,6-11,5-4,1h-11l-9-4-6-7-1-3v-9h2l4,6,8,4,5,1h9l10-3,10-7,5-5,6-7,8-16,2-6,1-8,2-2Z"/>
  <path class="cls-2" d="m434,118h16l14,4,10,6,11,9,10,10,7,10,10,17,8-15,9-12,7-8,14-11,10-6,14-4h15l2,2-15,9-26,12-13,9-7,7-9,14-8,17h-2l-12-23-8-10-10-9-16-9-25-12-8-5,2-2Z"/>
  <path class="cls-2" d="m511,817h2l3,19,6,21,5,16v11l-4,15-9,21-1,3h-2l-11-26-3-12v-14l10-31,3-14,1-9Z"/>
  <path class="cls-2" d="m511,77l5,4,8,13,3,11v8l-3,12-10,24-2,5-2-3-6-15-7-19v-16l5-12,9-12Z"/>
  <path class="cls-2" d="m512,700l3,4,5,12,2,8v12l-5,12-4,7h-2l-8-16-1-3v-12l4-13,5-10,1-1Z"/>
  <path class="cls-3" d="m710,333l8,2,5,8,3,13-8-6-3-4-2-9-3-4Z"/>
</svg>