<svg height="233.8" width="927.41" viewBox="0 0 927.41 233.8" xmlns="http://www.w3.org/2000/svg" xmlns:xlink="http://www.w3.org/1999/xlink"><path transform="translate(-1167.54 -262.32)" d="M1183.59 335.06h137.22a80.49 80.49 0 0 1 65 33V277.9h-137.74a65 65 0 0 0-64.48 57.16m0 15.58a65.05 65.05 0 0 0 64.48 57.16h137.22a65 65 0 0 0-64.48-57.16Zm-.47 129.9h137.69a65 65 0 0 0 64.48-57.16h-137.22a80.47 80.47 0 0 1-65-33Zm137.69 15.58h-153.27V342.85a80.62 80.62 0 0 1 80.53-80.53h153.27v153.27a80.62 80.62 0 0 1-80.53 80.53M1461 389.19q.55 10.83 10 15.52t27.51 4.7q16.39 0 25-4.22t8.64-14.57q0-7.08-4.06-10.67a22.78 22.78 0 0 0-10.87-4.93 170.52 170.52 0 0 0-19.55-2.31c-5.25-.43-9.14-.86-11.66-1.32a12.9 12.9 0 0 1-5.14-1.71 3.4 3.4 0 0 1-1.35-2.86q0-2.55 3.14-3.83t11.67-1.27q9.63 0 13.93 1.59t4.3 5.34h17.2q-.32-9.4-9.36-14.33t-25.59-4.94q-15.28 0-23.89 4.3t-8.6 12.9q0 6.29 3.47 10.11t10.66 5.85a96.81 96.81 0 0 0 19.07 2.83q8.92.56 12.82 1.15t5.26 1.63a3.77 3.77 0 0 1 1.35 3.19q0 2.87-3.66 4.3t-13.38 1.43q-10.67 0-15.17-2c-3-1.35-4.49-3.3-4.49-5.85Zm84.89-38.19v56.85h16.49v-14.6h28.18q10.35 0 16.4-5.61t6-15.57q0-9.87-6-15.49t-16.4-5.61Zm40.11 14a28.87 28.87 0 0 1 5.06.36 5.84 5.84 0 0 1 3.34 1.91 7.06 7.06 0 0 1 1.4 4.82q0 3.35-1.4 4.9a5.84 5.84 0 0 1-3.34 1.91 28.87 28.87 0 0 1-5.06.36h-23.64V365Zm106.81 6.45q0-9.8-5.77-15.12t-16.11-5.33h-45.22v56.85h16.48V391.9h21.1l10.27 15.92h19l-12.18-17.6a18.46 18.46 0 0 0 9.16-7.16 20.65 20.65 0 0 0 3.26-11.63m-27.55-7a32.87 32.87 0 0 1 5.42.36 6.09 6.09 0 0 1 3.5 1.87 8.69 8.69 0 0 1 0 9.55 6.15 6.15 0 0 1-3.5 1.87 32.87 32.87 0 0 1-5.42.36h-23.09v-14Zm41.41 43.39h58.92v-12.9h-42.44v-9.08H1764V373h-40.85v-9.08h42.44V351h-58.92Zm74.27-56.82v56.85h16.49v-40.8l33.51 40.77h24.13V351h-16.4v40.77L1805.14 351Zm87.81 28.35a27.13 27.13 0 0 0 17.55 26.59 50.82 50.82 0 0 0 19.63 3.5 73.13 73.13 0 0 0 16.64-1.79 61.59 61.59 0 0 0 16-6.49v-24.31h-34.07v10.75h20.14v5.4a42.31 42.31 0 0 1-8.28 2.67 48.52 48.52 0 0 1-9.56.83q-11.62 0-16.2-4.73a16.47 16.47 0 0 1-4.58-11.91 16.78 16.78 0 0 1 4.34-11.7q4.35-4.79 14.45-4.78 7.25 0 11.31 2.35c2.71 1.57 4.35 3.54 4.94 5.93h17.51a20.28 20.28 0 0 0-4.77-11.5 27.85 27.85 0 0 0-11.71-7.92 53.51 53.51 0 0 0-36.22.59 27.75 27.75 0 0 0-12.62 10.23 28.69 28.69 0 0 0-4.5 16.25m84.85 28.5h58.92v-12.9h-42.44v-9.08h40.85V373h-40.85v-9.08h42.44V351h-58.92ZM2095 371.43q0-9.8-5.78-15.12t-16.16-5.31h-45.22v56.85h16.48V391.9h21.1l10.27 15.92h19l-12.19-17.6a18.46 18.46 0 0 0 9.16-7.16 20.57 20.57 0 0 0 3.27-11.63m-27.55-7a32.73 32.73 0 0 1 5.41.36 6.06 6.06 0 0 1 3.5 1.87q1.44 1.51 1.44 4.77t-1.44 4.78a6.12 6.12 0 0 1-3.5 1.87 32.73 32.73 0 0 1-5.41.36h-23.09v-14ZM1421.17 276.93a7.14 7.14 0 0 0 2.78-2.78 8.62 8.62 0 0 0 0-8.06 7.12 7.12 0 0 0-2.78-2.77 8.62 8.62 0 0 0-8.06 0 7.09 7.09 0 0 0-2.77 2.77 8.62 8.62 0 0 0 0 8.06 7.12 7.12 0 0 0 2.77 2.78 8.7 8.7 0 0 0 8.06 0m-1.14-2.67-1.74-2.88v-1.11l-2.07.15 2.25 3.84Zm-6.25 1.54a6 6 0 0 1-2.31-2.31 7.16 7.16 0 0 1 0-6.73 5.92 5.92 0 0 1 2.31-2.32 7.24 7.24 0 0 1 6.73 0 6.06 6.06 0 0 1 2.31 2.32 7.24 7.24 0 0 1 0 6.73 6.1 6.1 0 0 1-2.31 2.31 7.24 7.24 0 0 1-6.73 0m2.18-1.54v-3h1.37a3 3 0 0 0 2.09-.64 2.62 2.62 0 0 0 .68-2 2.63 2.63 0 0 0-.7-2 2.92 2.92 0 0 0-2.07-.66h-2.78v8.28Zm0-4.25v-2.74h1.37a1.11 1.11 0 0 1 1.37 1.37 1.51 1.51 0 0 1-.28 1 1.5 1.5 0 0 1-1.09.3Z" style="fill:currentColor"></path></svg>