<svg xmlns:xlink="http://www.w3.org/1999/xlink" xmlns="http://www.w3.org/2000/svg" version="1.1" viewBox="0 0 480 320" height="320px" width="480px">
    <title>BG Guides 2</title>
    <g fill-rule="evenodd" fill="none" stroke-width="1" stroke="none" id="Page-1">
        <g transform="translate(-530, 0)" id="Logos">
            <g transform="translate(643, 48)" id="Trolle-Projects-Logo">
                <g transform="translate(48.2266, -0)" id="Star">
                    <path fill="#9C9C9E" id="Fill-1" d="M79.35285,0 C79.0586782,3.67421936 76.0773599,33.857209 74.5499292,48.9484206 L84.201028,48.9484206 C82.6283402,33.8736396 79.6470218,3.69064995 79.35285,0 Z M158.592557,79.3280108 L0.0622286555,79.3280108 C0.0441257739,79.3359428 0.0288514675,79.3489739 0.0169714515,79.3648379 C0.0056571505,79.380702 0,79.3993988 0,79.4186623 C0,79.4379257 0.0056571505,79.4566226 0.0169714515,79.4724866 C0.0282857525,79.4883506 0.045257204,79.5008152 0.0622286555,79.5087472 C8.24812542,80.3455741 44.5613745,84.1348075 61.3008828,85.6600193 C73.7013567,86.7755996 72.8471269,94.0260213 73.6674138,101.456613 C74.125643,105.656045 78.9229066,153.948941 79.3019357,158.640157 C79.6809647,153.948941 84.4782284,105.656045 84.953429,101.456613 C85.7567444,94.0260213 84.953429,86.6934466 97.3029885,85.6600193 C114.042497,84.1348075 150.434946,80.3455741 158.558614,79.5087472 C158.578414,79.5059144 158.596517,79.4962826 158.609528,79.4815518 C158.6265,79.4673875 158.632157,79.4492572 158.637814,79.4299937 C158.643471,79.4101637 158.637814,79.3903337 158.632157,79.3722034 C158.62254,79.3546396 158.608963,79.3393422 158.592557,79.3280108 Z"></path>
                    <path id="Stroke-3" d="M79.35285,0 C79.0586782,3.67421936 76.0773599,33.857209 74.5499292,48.9484206 L84.201028,48.9484206 C82.6283402,33.8736396 79.6470218,3.69064995 79.35285,0 L79.35285,0 Z M158.592557,79.3280108 L0.0622286555,79.3280108 C0.0441257739,79.3359428 0.0288514675,79.3489739 0.0169714515,79.3648379 C0.0056571505,79.380702 0,79.3993988 0,79.4186623 C0,79.4379257 0.0056571505,79.4566226 0.0169714515,79.4724866 C0.0282857525,79.4883506 0.045257204,79.5008152 0.0622286555,79.5087472 C8.24812542,80.3455741 44.5613745,84.1348075 61.3008828,85.6600193 C73.7013567,86.7755996 72.8471269,94.0260213 73.6674138,101.456613 C74.125643,105.656045 78.9229066,153.948941 79.3019357,158.640157 C79.6809647,153.948941 84.4782284,105.656045 84.953429,101.456613 C85.7567444,94.0260213 84.953429,86.6934466 97.3029885,85.6600193 C114.042497,84.1348075 150.434946,80.3455741 158.558614,79.5087472 C158.578414,79.5059144 158.596517,79.4962826 158.609528,79.4815518 C158.6265,79.4673875 158.632157,79.4492572 158.637814,79.4299937 C158.643471,79.4101637 158.637814,79.3903337 158.632157,79.3722034 C158.62254,79.3546396 158.608963,79.3393422 158.592557,79.3280108 L158.592557,79.3280108 Z"></path>
                </g>
                <g fill="#9C9C9E" transform="translate(0, 189.7336)" id="Type">
                    <polygon points="0 1.26912126 0 5.80023881 15.4043772 5.80023881 15.4043772 33.6317134 20.720071 33.6317134 20.720071 5.80023881 36.1699559 5.80023881 36.1699559 1.26912126" id="Fill-1"></polygon>
                    <path id="Fill-2" d="M51.6855716,5.54293593 L51.6855716,14.750495 L67.8189213,14.750495 C70.1100826,14.750495 71.7605781,14.0637717 72.6312389,12.5521994 C72.9979615,11.864988 73.1810786,11.0401391 73.1810786,10.1240199 C73.1810786,9.20790074 72.9979615,8.42893099 72.6771403,7.78759876 C71.8059912,6.32190568 70.1564722,5.54293593 67.8189213,5.54293593 L51.6855716,5.54293593 Z M71.3938556,33.1665893 L58.697736,19.0567921 L51.6855716,19.0567921 L51.6855716,33.1665893 L46.322926,33.1665893 L46.322926,1.09948944 L68.2310569,1.09948944 C72.7225533,1.09948944 75.9766664,2.56518252 77.5807723,5.35941925 C78.3142174,6.6425718 78.6809399,8.15414405 78.6809399,9.98638241 C78.6809399,11.7273505 78.3142174,13.2389228 77.5807723,14.4761961 C75.9312534,17.3617031 72.218615,18.736614 67.1313776,18.736614 L65.1146478,18.736614 L65.1146478,19.4233374 L66.4438339,20.0651577 L78.7268412,33.1665893 L71.3938556,33.1665893 Z"></path>
                    <path id="Fill-4" d="M128.503834,21.1644519 C128.962359,19.9276666 129.191377,18.5532438 129.191377,17.1329418 C129.191377,15.7126398 128.962359,14.3387051 128.503834,13.1014317 C126.624808,7.87950352 120.483304,4.48932566 111.40802,4.48932566 C102.287323,4.48932566 96.191721,7.87950352 94.2667939,13.1014317 C93.8082687,14.3387051 93.5792502,15.7126398 93.5792502,17.1329418 C93.5792502,18.5532438 93.8082687,19.9276666 94.2667939,21.1644519 C96.191721,26.3868681 102.287323,29.7765579 111.40802,29.7765579 C120.436914,29.7765579 126.578906,26.4781384 128.503834,21.1644519 M88.9500497,22.6760241 C88.3543087,20.9809352 88.0334875,19.1486968 88.0334875,17.1329418 C88.0334875,15.1171867 88.3543087,13.2849484 88.9500497,11.5898594 C91.5166191,4.48932566 99.6289512,0 111.40802,0 C123.141188,0 131.25352,4.48932566 133.820578,11.5898594 C134.416319,13.2849484 134.73714,15.1171867 134.73714,17.1329418 C134.73714,19.1486968 134.416319,20.9809352 133.820578,22.6760241 C131.29991,29.7306787 123.232991,34.2663716 111.40802,34.2663716 C99.6748525,34.2663716 91.5166191,29.8229251 88.9500497,22.6760241"></path>
                    <polygon points="147.114831 33.1667846 147.114831 1.0991966 152.477477 1.0991966 152.477477 28.6774589 175.531188 28.6774589 175.531188 33.1667846" id="Fill-7"></polygon>
                    <polygon points="186.395306 33.1667846 186.395306 1.0991966 191.757952 1.0991966 191.757952 28.6774589 214.811664 28.6774589 214.811664 33.1667846" id="Fill-9"></polygon>
                    <polygon points="225.675733 33.1667846 225.675733 1.0991966 254.458813 1.0991966 254.458813 5.58901033 231.038379 5.58901033 231.038379 14.8424486 254.000287 14.8424486 254.000287 19.2863831 231.038379 19.2863831 231.038379 28.6774589 254.458813 28.6774589 254.458813 33.1667846" id="Fill-11"></polygon>
                </g>
            </g>
        </g>
    </g>
</svg>